<?xml version="1.0" encoding="utf-8"?>
<!-- Generator: Adobe Illustrator 24.0.1, SVG Export Plug-In . SVG Version: 6.00 Build 0)  -->
<svg version="1.1" id="Layer_1" xmlns="http://www.w3.org/2000/svg" xmlns:xlink="http://www.w3.org/1999/xlink" x="0px" y="0px"
	 viewBox="0 0 101.9 81.1" style="enable-background:new 0 0 101.9 81.1;" xml:space="preserve">
<style type="text/css">
	.st0{opacity:0.46;}
	.st1{fill:#FFFFFF;}
</style>
<g id="VIG2IK" class="st0">
	<path class="st1" d="M59.1,81.1V56.9H42.8v24.2H19.3c-3.1,0-4.7-1.6-4.7-4.7c0-9.7,0-19.3,0-29c0-0.6,0.2-1.2,0.7-1.5
		c7.4-6,14.7-12.1,22.1-18.2c4.3-3.6,8.6-7.1,12.9-10.7c0.3-0.4,0.8-0.4,1.2-0.1c0,0,0.1,0.1,0.1,0.1c11.1,9.2,22.3,18.4,33.5,27.5
		c1.6,1.1,2.4,3,2.3,4.9c-0.1,9,0,18.1,0,27.1c0,2.9-1.7,4.6-4.6,4.6L59.1,81.1L59.1,81.1z"/>
	<path class="st1" d="M71.2,14.6V3.5c0-0.3,0-0.7,0-1c0.1-1.5,0.8-2.2,2.2-2.3c3.9,0,7.8,0,11.7,0c1.6,0,2.3,0.8,2.3,2.5
		c0,8.2,0,16.4,0,24.5c0,0.5,0.2,1,0.6,1.3c4.1,3.4,8.2,6.8,12.3,10.2c0.3,0.3,0.6,0.5,0.9,0.8c0.9,0.7,1,1.9,0.3,2.8
		c0,0-0.1,0.1-0.1,0.1c-1.2,1.6-2.5,3.1-3.8,4.5c-0.7,0.9-2,1.1-2.9,0.4c-0.1-0.1-0.2-0.2-0.3-0.3c-3.3-2.7-6.5-5.5-9.8-8.2
		C76,31.8,67.5,24.7,59,17.5l-8-6.7c-1.7,1.4-3.4,2.8-5.1,4.2L20.1,36.5L7.7,46.9C6.2,48.1,5.2,48,4,46.6l-3.1-3.6
		c-1.3-1.6-1.2-2.5,0.3-3.8c5.2-4.4,10.5-8.7,15.7-13.1c9-7.5,18-15,27-22.5c1.1-1,2.4-1.9,3.8-2.7c2.7-1.4,5.9-1,8.2,1
		c4.8,4,9.6,8,14.4,12L71.2,14.6z"/>
</g>
</svg>
