<?xml version="1.0" encoding="utf-8"?>
<!-- Generator: Adobe Illustrator 24.0.1, SVG Export Plug-In . SVG Version: 6.00 Build 0)  -->
<svg version="1.1" id="Layer_1" xmlns="http://www.w3.org/2000/svg" xmlns:xlink="http://www.w3.org/1999/xlink" x="0px" y="0px"
	 viewBox="0 0 342.3 106.5" style="enable-background:new 0 0 342.3 106.5;" xml:space="preserve">
<style type="text/css">
	.st0{fill:#FFFFFF;}
</style>
<title>NOTR-0001-Touchscreen-Designs-assets</title>
<path class="st0" d="M181.3,81.2c0,4.6-2.7,7.5-6.8,7.5H174c-4.2-0.2-6.6-3-6.6-7.5V65.3h-4.6v15.8c0,7,4.4,11.6,11.2,11.8h0.5
	c6.9,0,11.3-4.6,11.3-11.8V65.3h-4.6V81.2z M147.4,20.3c-7.8,0-14.1,6.3-14.1,14.1s6.3,14.1,14.1,14.1c7.8,0,14.1-6.3,14.1-14.1
	c0,0,0,0,0,0C161.5,26.6,155.2,20.3,147.4,20.3C147.4,20.3,147.4,20.3,147.4,20.3 M147.4,44.2c-5.4,0-9.8-4.4-9.8-9.8
	c0-5.4,4.4-9.8,9.8-9.8s9.8,4.4,9.8,9.8c0,0,0,0,0,0C157.2,39.8,152.8,44.2,147.4,44.2C147.4,44.2,147.4,44.2,147.4,44.2
	 M103.7,69.5h8.8v22.9h4.7V69.5h8.8v-4.2h-22.3V69.5z M122.2,39.5l-14.9-18.6v-0.1h-3.6V48h4.7V29.4L123.3,48h3.5V20.8h-4.7
	L122.2,39.5z M151.3,86.2c0,0-2.6-3.8-2.8-4.3c4.2-0.9,6.9-3.6,6.9-8s-3-8.6-9.6-8.6h-12.7v27.2h4.6v-10h5.4h0.1
	c0.1,0.1,0.2,0.1,0.3,0.2c0.1,0.1,0.1,0.1,0.2,0.2l0.1,0.2l0.2,0.4l0.5,0.8c0.6,1,2.1,3.4,2.1,3.4c0.3,0.5,0.6,0.9,0.9,1.3
	c0.8,1,1.7,1.9,2.8,2.6c1.5,0.8,3.2,1.1,4.8,1h2.2v-3.8h-1.8C153.8,88.8,152.2,87.8,151.3,86.2 M145.7,78.2h-8v-8.7h8
	c3.4,0,4.9,2,4.9,4.4C150.6,76.2,149.3,78.2,145.7,78.2 M220.3,69.5h8.8v22.9h4.7V69.5h8.8v-4.2h-22.2L220.3,69.5z M305.3,41.7
	c0,0-2.5-3.8-2.8-4.3c4.2-0.9,6.9-3.6,6.9-8s-3-8.6-9.6-8.6h-12.7V48h4.6V38h5.4c0.1,0,0.1,0,0.2,0c0.5,0.5,0.9,1.2,1.2,1.8
	c0.6,1,2.1,3.4,2.1,3.4c2.6,3.9,4.6,5,8.6,5h2.2v-3.9h-1.8C307.9,44.3,306.2,43.3,305.3,41.7 M299.8,33.7h-8v-8.7h8
	c3.4,0,4.9,2,4.9,4.4S303.4,33.7,299.8,33.7 M336.7,20.8v18.7l-14.9-18.7l0-0.1h-3.6V48h4.7V29.4l14.9,18.5l0,0.1h3.5V20.8H336.7z
	 M263,36.6h13.2v-4.4H263v-6.9h15.4v-4.5h-20V48h20.2v-4.6H263V36.6z M196.1,25h8.8v23h4.7V25h8.8v-4.2h-22.3V25z M204.3,76.1
	c-3.9-0.6-6.4-1.4-6.4-3.7s2.4-3.9,6-3.9c2.8,0,5.3,1.2,6.5,2.9l0.1,0.2l3.6-2.4l-0.1-0.2c-1.9-3.1-5.3-4.6-10.1-4.6
	c-3.5,0-6.7,1.1-8.6,3c-1.3,1.3-2,3.1-2,4.9c0,6,5.4,7.3,10.5,8c4.7,0.6,6.7,1.9,6.7,4.2c0,4-5.1,4.3-6.6,4.3
	c-3.3,0.1-6.4-1.5-8.2-4.3l-0.1-0.2l-3.5,2.3l0.1,0.1c2.3,4.2,6,6.2,11.7,6.2c5.4,0,11.3-2.2,11.3-8.5S209.9,76.9,204.3,76.1
	 M243.8,32.5h-13.7V20.8h-4.6V48h4.6V36.8h13.8V48h4.6V20.8h-4.6L243.8,32.5z M192.6,44.3h-1.8c-1.8,0-3.5-1-4.3-2.6
	c0,0-2.6-3.8-2.8-4.3c4.2-0.9,6.9-3.6,6.9-8s-3-8.6-9.6-8.6h-12.7V48h4.6V38h5.4c0.1,0,0.1,0,0.2,0c0.5,0.5,0.9,1.2,1.2,1.8
	c0.6,1,2.1,3.4,2.1,3.4c2.6,3.9,4.6,5,8.6,5h2.2L192.6,44.3z M180.8,33.7h-8v-8.7h8c3.4,0,4.9,2,4.9,4.4S184.4,33.7,180.8,33.7"/>
<path class="st0" d="M36.8,39.9l4.6,5.7V20.7h26.2v-4.6H47.3c3.3-4.6,2.3-10.9-2.3-14.2S34.1-0.4,30.8,4.2c-2.6,3.6-2.6,8.4,0,12
	H10.6v4.6h26.2V39.9z M33.1,10.2c0-3.3,2.7-5.9,6-5.9s6,2.7,5.9,6c0,3.3-2.7,5.9-5.9,5.9C35.8,16.1,33.1,13.5,33.1,10.2 M50.4,71.8
	h5.8L23.9,31.2h-7.9v4.9h5.8v31.1h-5.8v4.6h16.1v-4.6h-5.7V41.6L50.4,71.8z M56.6,35.8h6.1v-4.6H46v4.6h6.1v19.4h4.6L56.6,35.8z
	 M78.1,55.2l-4.4,3.9c-1.9,16.7-15.5,29.7-32.3,30.8v-22l-4.6-5.7v27.7C20,88.8,6.4,75.9,4.5,59.1l-4.5-4c0,13.7,7.1,26.4,18.9,33.4
	l20.2,17.9l20.2-17.9C71,81.5,78.1,68.9,78.1,55.2L78.1,55.2z M39.1,100.8l-8.5-7.5c5.6,1.3,11.4,1.3,17.1,0L39.1,100.8z"/>
</svg>
