<?xml version="1.0" encoding="utf-8"?>
<!-- Generator: Adobe Illustrator 24.0.1, SVG Export Plug-In . SVG Version: 6.00 Build 0)  -->
<svg version="1.1" id="Layer_1" xmlns="http://www.w3.org/2000/svg" xmlns:xlink="http://www.w3.org/1999/xlink" x="0px" y="0px"
	 viewBox="0 0 88.1 88.1" style="enable-background:new 0 0 88.1 88.1;" xml:space="preserve">
<style type="text/css">
	.st0{fill:none;}
	.st1{fill:#BC9C36;}
</style>
<title>NOTR-0001-Touchscreen-Designs-assets</title>
<g id="Layer_1_1_">
	<path class="st0" d="M17.1,67.4c-2,0-3.7,1.6-3.7,3.7s1.6,3.7,3.7,3.7c2,0,3.7-1.6,3.7-3.7c0-1-0.4-1.9-1.1-2.6
		C19,67.7,18,67.4,17.1,67.4z"/>
	<path class="st0" d="M68.4,73.6c1.4,1.4,3.8,1.4,5.2,0c1.4-1.4,1.5-3.7,0-5.2s-3.7-1.5-5.2,0c0,0,0,0,0,0
		C67,69.9,67,72.2,68.4,73.6C68.4,73.6,68.4,73.6,68.4,73.6z"/>
	<path class="st0" d="M5.9,40.4c-2,0-3.7,1.7-3.7,3.7c0,2,1.7,3.7,3.7,3.7c2,0,3.7-1.6,3.7-3.7C9.6,42,7.9,40.4,5.9,40.4z"/>
	<path class="st0" d="M73.6,19.7c1.4-1.4,1.4-3.8,0-5.2s-3.8-1.4-5.2,0c-0.7,0.7-1.1,1.6-1.1,2.6c0,2,1.7,3.7,3.7,3.7
		C72,20.7,72.9,20.3,73.6,19.7z"/>
	<path class="st0" d="M47.7,5.9c0-2-1.6-3.7-3.7-3.7c-2,0-3.7,1.6-3.7,3.7S42,9.6,44,9.6S47.7,7.9,47.7,5.9L47.7,5.9z"/>
	<path class="st0" d="M19.7,14.5c-1.4-1.4-3.8-1.5-5.2,0s-1.5,3.8,0,5.2s3.8,1.5,5.2,0c0.7-0.7,1.1-1.6,1.1-2.6
		C20.7,16.1,20.4,15.2,19.7,14.5z"/>
	<path class="st0" d="M40.4,82.2c0,2,1.6,3.7,3.7,3.7s3.7-1.6,3.7-3.7c0-2-1.6-3.7-3.7-3.7c0,0,0,0,0,0C42,78.5,40.4,80.2,40.4,82.2
		z"/>
	<path class="st0" d="M82.2,40.4c-2,0-3.7,1.7-3.7,3.7c0,2,1.7,3.7,3.7,3.7c2,0,3.7-1.6,3.7-3.7C85.9,42,84.2,40.4,82.2,40.4z"/>
	<path class="st1" d="M45.2,19.4v-7.7c-0.7,0.1-1.5,0.1-2.2,0v7.7c0.4,0,0.7-0.1,1.1-0.1S44.8,19.4,45.2,19.4z"/>
	<path class="st1" d="M42.9,68.7v7.7c0.7-0.1,1.5-0.1,2.2,0v-7.7c-0.4,0-0.7,0.1-1.1,0.1S43.3,68.7,42.9,68.7z"/>
	<path class="st1" d="M44,10.1c0.6,0,1.1,0.5,1.1,1.1c0,0,0,0,0,0v0.4c3.2-0.6,5.3-3.7,4.7-6.9s-3.7-5.3-6.9-4.7S37.7,3.8,38.3,7
		c0.5,2.4,2.3,4.2,4.7,4.7v-0.4C42.9,10.6,43.4,10.1,44,10.1L44,10.1z M40.4,5.9c0-2,1.6-3.7,3.7-3.7c2,0,3.7,1.6,3.7,3.7
		s-1.6,3.7-3.7,3.7c0,0,0,0,0,0C42,9.6,40.4,7.9,40.4,5.9z"/>
	<path class="st1" d="M45.2,11.7v-0.4c0-0.6-0.5-1.1-1.1-1.1s-1.1,0.5-1.1,1.1v0.4C43.7,11.8,44.4,11.8,45.2,11.7z"/>
	<path class="st1" d="M44,78c-0.6,0-1.1-0.5-1.1-1.1l0,0v-0.4c-3.2,0.6-5.3,3.7-4.7,6.9c0.6,3.2,3.7,5.3,6.9,4.7s5.3-3.7,4.7-6.9
		c-0.5-2.4-2.3-4.2-4.7-4.7v0.4C45.2,77.5,44.7,78,44,78C44.1,78,44.1,78,44,78z M47.7,82.3c0,2-1.6,3.7-3.7,3.7
		c-2,0-3.7-1.6-3.7-3.7s1.6-3.7,3.7-3.7c0,0,0,0,0,0C46.1,78.6,47.7,80.2,47.7,82.3L47.7,82.3z"/>
	<path class="st1" d="M42.9,76.4v0.4c0,0.6,0.5,1.1,1.1,1.1s1.1-0.5,1.1-1.1v-0.4C44.4,76.3,43.7,76.3,42.9,76.4z"/>
	<path class="st1" d="M76.4,42.9h-7.7c0,0.4,0.1,0.7,0.1,1.1s0,0.7-0.1,1.1h7.7C76.3,44.4,76.3,43.7,76.4,42.9z"/>
	<path class="st1" d="M19.4,42.9h-7.7c0.1,0.7,0.1,1.5,0,2.2h7.7c0-0.4,0-0.7,0-1.1S19.4,43.3,19.4,42.9z"/>
	<path class="st1" d="M82.2,38.2c-2.8,0-5.2,2-5.8,4.8h0.4c0.6,0,1.1,0.5,1.1,1.1s-0.5,1.1-1.1,1.1h-0.4c0.6,3.2,3.7,5.3,6.9,4.7
		c3.2-0.6,5.3-3.7,4.7-6.9C87.5,40.2,85,38.2,82.2,38.2z M82.2,47.7c-2,0-3.7-1.7-3.7-3.7c0-2,1.7-3.7,3.7-3.7c2,0,3.7,1.6,3.7,3.7
		C85.9,46.1,84.2,47.7,82.2,47.7z"/>
	<path class="st1" d="M78,44c0-0.6-0.5-1.1-1.1-1.1l0,0h-0.4c-0.2,0.7-0.2,1.5,0,2.2h0.4C77.5,45.2,78,44.7,78,44L78,44z"/>
	<path class="st1" d="M10.1,44c0-0.6,0.5-1.1,1.1-1.1l0,0h0.4c-0.6-3.2-3.7-5.3-6.9-4.7s-5.3,3.7-4.7,6.9s3.7,5.3,6.9,4.7
		c2.4-0.5,4.2-2.3,4.7-4.7h-0.4C10.6,45.2,10.1,44.7,10.1,44L10.1,44z M5.9,47.7c-2,0-3.7-1.7-3.7-3.7c0-2,1.7-3.7,3.7-3.7
		c2,0,3.7,1.6,3.7,3.7C9.6,46.1,7.9,47.7,5.9,47.7z"/>
	<path class="st1" d="M11.7,42.9h-0.4c-0.6,0-1.1,0.5-1.1,1.1s0.5,1.1,1.1,1.1h0.4C11.8,44.4,11.8,43.7,11.7,42.9z"/>
	<path class="st1" d="M27.4,25.8L22,20.4c-0.2,0.3-0.4,0.6-0.7,0.9c-0.3,0.3-0.6,0.5-0.9,0.7l5.5,5.5C26.3,26.9,26.9,26.3,27.4,25.8
		z"/>
	<path class="st1" d="M60.7,62.3l5.5,5.5c0.2-0.3,0.4-0.6,0.7-0.9c0.3-0.3,0.6-0.5,0.9-0.7l-5.5-5.5C61.8,61.2,61.3,61.8,60.7,62.3z
		"/>
	<path class="st1" d="M68,68c-0.4,0.4-1.1,0.4-1.5,0c0,0,0,0,0,0l-0.3-0.3c-1.8,2.7-1.2,6.3,1.5,8.2c2.7,1.8,6.3,1.2,8.2-1.5
		c1.6-2.3,1.3-5.5-0.7-7.5c-2-1.9-5.1-2.2-7.5-0.7l0.3,0.3C68.4,66.8,68.4,67.5,68,68C68,68,68,68,68,68z M71,67.3
		c2,0,3.7,1.6,3.7,3.7c0,1-0.4,1.9-1.1,2.6c-1.4,1.4-3.7,1.5-5.2,0s-1.5-3.7,0-5.2c0,0,0,0,0,0C69.1,67.7,70,67.3,71,67.3L71,67.3z"
		/>
	<path class="st1" d="M66.2,67.7l0.3,0.3c0.4,0.4,1.1,0.4,1.5,0c0.4-0.4,0.4-1.1,0-1.6c0,0,0,0,0,0l-0.3-0.3
		c-0.3,0.2-0.6,0.4-0.9,0.7C66.6,67.1,66.4,67.4,66.2,67.7z"/>
	<path class="st1" d="M20.1,20.1c0.4-0.4,1.1-0.4,1.6,0c0,0,0,0,0,0l0.3,0.3c0.7-1,1-2.1,1-3.3c0-1.6-0.6-3.1-1.7-4.2
		c-2.3-2.2-6-2.2-8.3,0c-2.3,2.3-2.3,6,0,8.3c2,2,5.1,2.3,7.5,0.7l-0.3-0.3C19.6,21.2,19.6,20.5,20.1,20.1z M14.5,19.7
		c-1.4-1.4-1.4-3.8,0-5.2s3.8-1.4,5.2,0c1.4,1.4,1.4,3.7,0,5.2C18.2,21.1,15.9,21.1,14.5,19.7z"/>
	<path class="st1" d="M22,20.4l-0.3-0.3c-0.4-0.4-1.1-0.4-1.6,0c0,0,0,0,0,0c-0.4,0.4-0.4,1.1,0,1.6l0.3,0.3
		c0.3-0.2,0.6-0.4,0.9-0.7C21.6,21,21.8,20.7,22,20.4z"/>
	<path class="st1" d="M25.8,60.7l-5.5,5.5c0.3,0.2,0.6,0.4,0.9,0.7c0.3,0.3,0.5,0.6,0.7,0.9l5.5-5.5C26.9,61.8,26.3,61.3,25.8,60.7z
		"/>
	<path class="st1" d="M62.3,27.4l5.5-5.5c-0.3-0.2-0.6-0.4-0.9-0.7c-0.3-0.3-0.5-0.6-0.7-0.9l-5.5,5.5
		C61.3,26.3,61.8,26.9,62.3,27.4z"/>
	<path class="st1" d="M20.9,68.4c-0.3,0-0.6-0.1-0.8-0.3c-0.4-0.4-0.4-1.1,0-1.6l0.3-0.3c-2.4-1.5-5.4-1.2-7.5,0.7
		c-2.3,2.3-2.4,6-0.1,8.3c2.3,2.3,6,2.4,8.3,0.1c2-2,2.3-5.2,0.7-7.5L21.6,68C21.4,68.2,21.1,68.3,20.9,68.4z M13.7,67.7L13.7,67.7z
		 M19.7,73.7c-1.4,1.4-3.8,1.4-5.2,0c-1.4-1.4-1.4-3.8,0-5.2s3.8-1.4,5.2,0C21.1,69.9,21.1,72.2,19.7,73.7z"/>
	<path class="st1" d="M20.4,66.2l-0.3,0.3c-0.4,0.4-0.4,1.1,0,1.6c0.4,0.4,1.1,0.4,1.6,0c0,0,0,0,0,0l0.3-0.3
		c-0.2-0.3-0.4-0.6-0.7-0.9C21,66.6,20.7,66.4,20.4,66.2z"/>
	<path class="st1" d="M68,20.1c0.4,0.4,0.4,1.1,0,1.6c0,0,0,0,0,0l-0.3,0.3c2.3,1.6,5.5,1.3,7.5-0.7c2.3-2.3,2.3-6,0-8.3
		c0,0,0,0,0,0c-2.3-2.2-6-2.2-8.3,0c-2,2-2.3,5.1-0.7,7.5l0.3-0.3C66.9,19.6,67.6,19.6,68,20.1C68,20.1,68,20.1,68,20.1z M67.7,13.7
		L67.7,13.7z M68.4,14.5c1.4-1.4,3.7-1.4,5.2,0c0,0,0,0,0,0c1.4,1.4,1.4,3.8,0,5.2c0,0,0,0,0,0c-1.4,1.4-3.8,1.4-5.2,0
		S67,15.9,68.4,14.5z"/>
	<path class="st1" d="M67.7,21.9l0.3-0.3c0.4-0.4,0.4-1.1,0-1.6c0,0,0,0,0,0c-0.4-0.4-1.1-0.4-1.5,0c0,0,0,0,0,0l-0.3,0.3
		c0.2,0.3,0.4,0.6,0.7,0.9C67.1,21.5,67.4,21.7,67.7,21.9z"/>
	<path class="st1" d="M26.6,28.2l-0.8-0.8c-3.9,4.3-6.2,9.8-6.5,15.5h1.1C20.8,37.5,22.9,32.2,26.6,28.2z"/>
	<path class="st1" d="M42.9,20.5v-1.1c-5.8,0.3-11.3,2.5-15.5,6.4l0.8,0.8C32.2,22.9,37.5,20.8,42.9,20.5z"/>
	<path class="st1" d="M59.9,26.6l0.8-0.8c-4.3-3.9-9.8-6.2-15.5-6.4v1.1C50.6,20.7,55.9,22.9,59.9,26.6z"/>
	<path class="st1" d="M67.6,42.9h1.1c-0.3-5.8-2.5-11.3-6.4-15.5l-0.8,0.8C65.2,32.2,67.4,37.5,67.6,42.9z"/>
	<path class="st1" d="M45.2,67.6v1.1c5.8-0.3,11.3-2.5,15.5-6.4l-0.8-0.8C55.9,65.2,50.6,67.4,45.2,67.6z"/>
	<path class="st1" d="M61.5,59.9l0.8,0.8c3.9-4.3,6.2-9.8,6.4-15.5h-1.1C67.4,50.6,65.2,55.9,61.5,59.9z"/>
	<path class="st1" d="M20.5,45.2h-1.1c0.3,5.8,2.5,11.3,6.5,15.5l0.8-0.8C22.9,55.9,20.8,50.6,20.5,45.2z"/>
	<path class="st1" d="M28.2,61.5l-0.8,0.8c4.3,3.9,9.8,6.2,15.5,6.4v-1.1C37.5,67.4,32.2,65.2,28.2,61.5z"/>
	<path class="st1" d="M44,20.5c0.4,0,0.7,0,1.1,0v-1.1c-0.4,0-0.7-0.1-1.1-0.1s-0.7,0-1.1,0.1v1.1C43.3,20.5,43.7,20.5,44,20.5z"/>
	<path class="st1" d="M44,67.7c-0.4,0-0.7,0-1.1-0.1v1.1c0.4,0,0.7,0.1,1.1,0.1s0.7,0,1.1-0.1v-1.1C44.8,67.6,44.4,67.7,44,67.7z"/>
	<path class="st1" d="M68.7,42.9h-1.1c0,0.4,0.1,0.7,0.1,1.1s0,0.7-0.1,1.1h1.1c0-0.4,0.1-0.7,0.1-1.1S68.7,43.3,68.7,42.9z"/>
	<path class="st1" d="M20.5,44c0-0.4,0-0.7,0-1.1h-1.1c0,0.4,0,0.7,0,1.1s0,0.7,0,1.1h1.1C20.5,44.8,20.5,44.4,20.5,44z"/>
	<path class="st1" d="M28.2,26.6l-0.8-0.8c-0.5,0.5-1.1,1-1.6,1.6l0.8,0.8C27.1,27.6,27.6,27.1,28.2,26.6z"/>
	<path class="st1" d="M59.9,61.5l0.8,0.8c0.5-0.5,1.1-1,1.6-1.6l-0.8-0.8C61,60.5,60.5,61,59.9,61.5z"/>
	<path class="st1" d="M61.5,28.2l0.8-0.8c-0.5-0.5-1-1.1-1.6-1.6l-0.8,0.8C60.5,27.1,61,27.6,61.5,28.2z"/>
	<path class="st1" d="M26.6,59.9l-0.8,0.8c0.5,0.5,1,1.1,1.6,1.6l0.8-0.8C27.6,61,27.1,60.5,26.6,59.9z"/>
	<path class="st1" d="M21.6,45.2h-1.1c0.3,5.5,2.4,10.7,6.1,14.8l0.8-0.8C23.9,55.3,21.9,50.3,21.6,45.2z"/>
	<path class="st1" d="M42.9,21.6v-1.1c-5.5,0.3-10.7,2.4-14.8,6.1l0.8,0.8C32.8,23.9,37.8,21.9,42.9,21.6z"/>
	<path class="st1" d="M27.4,29l-0.8-0.8c-3.7,4-5.8,9.3-6.1,14.7h1.1C21.9,37.8,23.9,32.8,27.4,29z"/>
	<path class="st1" d="M45.2,66.5v1.1c5.5-0.2,10.7-2.4,14.8-6.1l-0.8-0.8C55.3,64.2,50.3,66.2,45.2,66.5z"/>
	<path class="st1" d="M60.7,59.1l0.8,0.8c3.7-4.1,5.9-9.3,6.1-14.8h-1.1C66.2,50.3,64.2,55.3,60.7,59.1z"/>
	<path class="st1" d="M60.7,29c3.5,3.9,5.5,8.8,5.8,14h1.1c-0.2-5.5-2.4-10.7-6.1-14.8L60.7,29z"/>
	<path class="st1" d="M29,60.7l-0.8,0.8c4,3.7,9.3,5.9,14.7,6.1v-1.1C37.8,66.2,32.8,64.2,29,60.7z"/>
	<path class="st1" d="M59.1,27.4l0.8-0.8c-4.1-3.7-9.3-5.9-14.8-6.1v1.1C50.3,21.9,55.3,23.9,59.1,27.4z"/>
	<path class="st1" d="M44,66.6c-0.4,0-0.7,0-1.1-0.1v1.1c0.4,0,0.7,0.1,1.1,0.1s0.7,0,1.1-0.1v-1.1C44.8,66.5,44.4,66.6,44,66.6z"/>
	<path class="st1" d="M44,21.5c0.4,0,0.7,0,1.1,0.1v-1.1c-0.4,0-0.7,0-1.1,0s-0.7,0-1.1,0v1.1C43.3,21.6,43.7,21.5,44,21.5z"/>
	<path class="st1" d="M66.6,44c0,0.4,0,0.7-0.1,1.1h1.1c0-0.4,0.1-0.7,0.1-1.1s0-0.7-0.1-1.1h-1.1C66.5,43.3,66.6,43.7,66.6,44z"/>
	<path class="st1" d="M21.6,44c0-0.4,0-0.7,0-1.1h-1.1c0,0.4,0,0.7,0,1.1s0,0.7,0,1.1h1.1C21.6,44.8,21.6,44.4,21.6,44z"/>
	<path class="st1" d="M29,27.4l-0.8-0.8c-0.5,0.5-1.1,1-1.6,1.6l0.8,0.8C27.9,28.4,28.4,27.9,29,27.4z"/>
	<path class="st1" d="M59.1,60.7l0.8,0.8c0.6-0.5,1.1-1,1.6-1.6l-0.8-0.8C60.2,59.7,59.7,60.2,59.1,60.7z"/>
	<path class="st1" d="M27.4,59.1l-0.8,0.8c0.5,0.5,1,1.1,1.6,1.6l0.8-0.8C28.4,60.2,27.9,59.7,27.4,59.1z"/>
	<path class="st1" d="M60.7,29l0.8-0.8c-0.5-0.5-1-1.1-1.6-1.6l-0.8,0.8C59.7,27.9,60.2,28.4,60.7,29z"/>
</g>
</svg>
